<svg width="208.262085" height="61.875854" viewBox="0 0 208.262 61.8759" fill="none" xmlns="http://www.w3.org/2000/svg" xmlns:xlink="http://www.w3.org/1999/xlink">
	<desc>
			Created with Pixso.
	</desc>
	<defs/>
	<path d="M163.53 50.5L162.35 50.5L162.35 44.03L163.4 44.03L165.9 47.23L168.26 44.03L169.31 44.03L169.31 50.5L168.13 50.5L168.13 45.8L165.9 48.8L165.83 48.8L163.47 45.8L163.47 50.5L163.53 50.5Z" fill="#2A2A2A" fill-opacity="1.000000" fill-rule="nonzero"/>
	<path d="M121.63 50.5L120.45 50.5L120.45 45.21L118.16 45.21L118.09 46.32C118.03 47.23 117.89 47.95 117.76 48.54C117.63 49.13 117.44 49.59 117.17 49.85C116.91 50.11 116.71 50.37 116.45 50.44C116.19 50.57 115.86 50.63 115.47 50.63L115.4 49.52C115.53 49.52 115.6 49.52 115.73 49.46C115.86 49.39 115.99 49.33 116.12 49.19C116.26 49.06 116.39 48.87 116.52 48.61C116.65 48.35 116.71 48.02 116.85 47.56C116.91 47.1 116.98 46.65 117.04 46.06L117.17 44.03L121.7 44.03L121.7 50.5L121.63 50.5Z" fill="#2A2A2A" fill-opacity="1.000000" fill-rule="nonzero"/>
	<path d="M100.72 44.03L102.75 44.03L102.75 50.5L101.57 50.5L101.57 48.35L100.33 48.35L98.75 50.5L97.37 50.5L99.28 48.08C98.88 48.02 98.55 47.76 98.29 47.43C98.03 47.1 97.9 46.71 97.9 46.19C97.9 45.54 98.16 45.01 98.62 44.62C99.01 44.23 99.73 44.03 100.72 44.03ZM99.08 46.19C99.08 46.52 99.21 46.78 99.41 46.97C99.67 47.17 99.93 47.3 100.26 47.3L101.57 47.3L101.57 45.08L100.52 45.08C100.06 45.08 99.67 45.21 99.41 45.4C99.21 45.6 99.08 45.86 99.08 46.19Z" fill="#2A2A2A" fill-opacity="1.000000" fill-rule="nonzero"/>
	<path d="M84.13 50.5L84.13 44.03C84.19 44.03 84.26 44.03 84.32 44.03C84.39 44.03 84.52 44.03 84.72 44.03C84.85 44.03 85.04 44.03 85.17 44.03C85.9 44.03 86.36 44.03 86.49 44.03C88.32 44.03 89.31 44.62 89.31 45.73C89.31 46.12 89.17 46.45 88.91 46.71C88.65 46.97 88.39 47.17 87.99 47.23C88.98 47.43 89.5 47.95 89.5 48.74C89.5 49.98 88.52 50.63 86.49 50.63C86.42 50.63 85.96 50.63 85.24 50.63C85.11 50.63 84.91 50.63 84.78 50.63C84.58 50.63 84.45 50.63 84.39 50.63C84.26 50.5 84.19 50.5 84.13 50.5ZM86.55 44.88C86.29 44.88 85.83 44.88 85.24 44.95L85.24 46.84L86.68 46.84C87.08 46.84 87.4 46.78 87.67 46.58C87.93 46.38 88.06 46.12 88.06 45.86C88.06 45.21 87.54 44.88 86.55 44.88ZM86.68 47.56L85.31 47.56L85.31 49.52C86.03 49.52 86.42 49.59 86.62 49.59C87.73 49.59 88.26 49.26 88.26 48.54C88.26 47.95 87.73 47.56 86.68 47.56Z" fill="#2A2A2A" fill-opacity="1.000000" fill-rule="nonzero"/>
	<path d="M54.95 45.67L51.21 50.5L50.03 50.5L50.03 44.03L51.21 44.03L51.21 48.87L54.95 44.03L56.13 44.03L56.13 50.5L54.95 50.5L54.95 45.67Z" fill="#2A2A2A" fill-opacity="1.000000" fill-rule="nonzero"/>
	<path d="M131.86 45.14L129.5 45.14L129.5 43.97L135.41 43.97L135.41 45.14L133.04 45.14L133.04 50.44L131.86 50.44L131.86 45.14Z" fill="#2A2A2A" fill-opacity="1.000000" fill-rule="nonzero"/>
	<path d="M113.9 50.5L112.78 50.5L112.78 45.08L109.24 45.08L109.24 50.44L108.06 50.44L108.06 43.97L113.9 43.97L113.9 50.5Z" fill="#2A2A2A" fill-opacity="1.000000" fill-rule="nonzero"/>
	<path d="M171.73 45.4L171.4 44.49C172.06 44.1 172.78 43.9 173.57 43.9C174.42 43.9 175.08 44.1 175.47 44.55C175.86 45.01 176.06 45.67 176.06 46.58L176.06 50.57L174.95 50.57L174.95 49.65C174.42 50.31 173.76 50.57 172.85 50.57C172.26 50.57 171.8 50.37 171.4 50.04C171.01 49.65 170.88 49.19 170.88 48.61C170.88 47.95 171.08 47.5 171.54 47.1C171.99 46.71 172.58 46.58 173.31 46.58C173.96 46.58 174.55 46.71 174.95 46.97C174.95 46.25 174.81 45.73 174.62 45.4C174.42 45.08 174.03 44.95 173.44 44.95C172.98 44.95 172.32 45.08 171.73 45.4ZM173.31 49.59C173.96 49.59 174.49 49.33 175.01 48.74L175.01 47.89C174.62 47.63 174.09 47.43 173.57 47.43C173.17 47.43 172.85 47.5 172.58 47.69C172.32 47.89 172.19 48.15 172.19 48.48C172.19 48.8 172.32 49.06 172.52 49.19C172.72 49.46 172.98 49.59 173.31 49.59Z" fill="#2A2A2A" fill-opacity="1.000000" fill-rule="nonzero"/>
	<path d="M91.6 45.4L91.27 44.49C91.93 44.1 92.65 43.9 93.44 43.9C94.29 43.9 94.95 44.1 95.34 44.55C95.73 45.01 95.93 45.67 95.93 46.58L95.93 50.57L94.82 50.57L94.82 49.65C94.29 50.31 93.64 50.57 92.72 50.57C92.13 50.57 91.67 50.37 91.27 50.04C90.88 49.65 90.75 49.19 90.75 48.61C90.75 47.95 90.95 47.5 91.41 47.1C91.86 46.71 92.45 46.58 93.18 46.58C93.83 46.58 94.42 46.71 94.82 46.97C94.82 46.25 94.68 45.73 94.49 45.4C94.29 45.08 93.9 44.95 93.31 44.95C92.78 44.95 92.19 45.08 91.6 45.4ZM93.18 49.59C93.83 49.59 94.36 49.33 94.88 48.74L94.88 47.89C94.49 47.63 93.96 47.43 93.44 47.43C93.05 47.43 92.72 47.5 92.45 47.69C92.19 47.89 92.06 48.15 92.06 48.48C92.06 48.8 92.19 49.06 92.39 49.19C92.52 49.46 92.85 49.59 93.18 49.59Z" fill="#2A2A2A" fill-opacity="1.000000" fill-rule="nonzero"/>
	<path d="M76.52 49.72C75.87 49.06 75.54 48.28 75.54 47.3C75.54 46.32 75.87 45.54 76.52 44.88C77.18 44.23 78.03 43.9 79.01 43.9C80 43.9 80.85 44.23 81.51 44.88C82.16 45.54 82.49 46.32 82.49 47.3C82.49 48.28 82.16 49.06 81.51 49.72C80.85 50.37 80.06 50.7 79.01 50.7C77.96 50.63 77.18 50.31 76.52 49.72ZM76.78 47.23C76.78 47.89 76.98 48.48 77.37 48.87C77.77 49.33 78.36 49.52 79.01 49.52C79.67 49.52 80.19 49.33 80.65 48.87C81.05 48.41 81.31 47.89 81.31 47.23C81.31 46.58 81.11 45.99 80.65 45.6C80.26 45.14 79.73 44.95 79.08 44.95C78.42 44.95 77.9 45.14 77.51 45.6C76.98 46.06 76.78 46.58 76.78 47.23Z" fill="#2A2A2A" fill-opacity="1.000000" fill-rule="nonzero"/>
	<path d="M69.11 53.38L67.93 53.38L67.93 44.03L69.11 44.03L69.11 44.82C69.37 44.55 69.63 44.36 70.09 44.16C70.49 43.97 70.94 43.9 71.34 43.9C72.26 43.9 72.98 44.23 73.5 44.82C74.03 45.4 74.35 46.19 74.35 47.17C74.35 48.15 74.03 49 73.44 49.65C72.85 50.31 71.99 50.63 71.01 50.63C70.22 50.63 69.63 50.5 69.17 50.17L69.17 53.38L69.11 53.38ZM71.01 44.95C70.22 44.95 69.63 45.27 69.11 45.86L69.11 49.06C69.63 49.39 70.22 49.59 70.81 49.59C71.47 49.59 72.06 49.39 72.45 48.93C72.85 48.48 73.04 47.95 73.04 47.23C73.04 46.58 72.85 45.99 72.45 45.6C72.12 45.14 71.67 44.95 71.01 44.95Z" fill="#2A2A2A" fill-opacity="1.000000" fill-rule="nonzero"/>
	<path d="M155.53 53.38L154.35 53.38L154.35 44.03L155.53 44.03L155.53 44.82C155.8 44.55 156.06 44.36 156.52 44.16C156.91 43.97 157.37 43.9 157.76 43.9C158.68 43.9 159.4 44.23 159.93 44.82C160.45 45.4 160.78 46.19 160.78 47.17C160.78 48.15 160.45 49 159.86 49.65C159.27 50.31 158.42 50.63 157.44 50.63C156.65 50.63 156.06 50.5 155.6 50.17L155.6 53.38L155.53 53.38ZM157.37 44.95C156.58 44.95 155.99 45.27 155.47 45.86L155.47 49.06C155.99 49.39 156.58 49.59 157.17 49.59C157.83 49.59 158.42 49.39 158.81 48.93C159.21 48.48 159.4 47.95 159.4 47.23C159.4 46.58 159.21 45.99 158.81 45.6C158.55 45.14 158.03 44.95 157.37 44.95Z" fill="#2A2A2A" fill-opacity="1.000000" fill-rule="nonzero"/>
	<path d="M146.75 49.72C146.09 49.06 145.76 48.28 145.76 47.3C145.76 46.32 146.09 45.53 146.75 44.88C147.4 44.23 148.26 43.9 149.24 43.9C150.22 43.9 151.08 44.23 151.73 44.88C152.39 45.53 152.71 46.32 152.71 47.3C152.71 48.28 152.39 49.06 151.73 49.72C151.08 50.37 150.29 50.7 149.24 50.7C148.19 50.63 147.4 50.31 146.75 49.72ZM147.01 47.23C147.01 47.89 147.21 48.48 147.6 48.87C147.99 49.33 148.58 49.52 149.24 49.52C149.89 49.52 150.42 49.33 150.88 48.87C151.27 48.41 151.53 47.89 151.53 47.23C151.53 46.58 151.34 45.99 150.88 45.6C150.49 45.14 149.96 44.95 149.31 44.95C148.65 44.95 148.12 45.14 147.73 45.6C147.21 46.06 147.01 46.58 147.01 47.23Z" fill="#2A2A2A" fill-opacity="1.000000" fill-rule="nonzero"/>
	<path d="M124.06 45.4L123.73 44.49C124.39 44.1 125.11 43.9 125.9 43.9C126.75 43.9 127.4 44.1 127.8 44.55C128.19 45.01 128.39 45.67 128.39 46.58L128.39 50.57L127.27 50.57L127.27 49.65C126.75 50.31 126.09 50.57 125.18 50.57C124.59 50.57 124.13 50.37 123.73 50.04C123.34 49.65 123.21 49.19 123.21 48.61C123.21 47.95 123.4 47.5 123.86 47.1C124.32 46.71 124.91 46.58 125.63 46.58C126.29 46.58 126.88 46.71 127.27 46.97C127.27 46.25 127.14 45.73 126.95 45.4C126.75 45.08 126.36 44.95 125.77 44.95C125.24 44.95 124.65 45.08 124.06 45.4ZM125.63 49.59C126.29 49.59 126.81 49.33 127.34 48.74L127.34 47.89C126.95 47.63 126.42 47.43 125.9 47.43C125.5 47.43 125.18 47.5 124.91 47.69C124.65 47.89 124.52 48.15 124.52 48.48C124.52 48.8 124.65 49.06 124.85 49.19C124.98 49.46 125.24 49.59 125.63 49.59Z" fill="#2A2A2A" fill-opacity="1.000000" fill-rule="nonzero"/>
	<path d="M47.47 50.5L39.34 50.5L39.34 40.44L40.59 40.44L40.59 49.33L46.03 49.33L46.03 40.44L47.21 40.44L47.21 49.33L48.59 49.33L48.59 52.33L47.41 52.33L47.41 50.5L47.47 50.5Z" fill="#2A2A2A" fill-opacity="1.000000" fill-rule="nonzero"/>
	<path d="M140.85 53.38L139.67 53.38L139.67 50.63L139.54 50.63C138.42 50.63 137.57 50.31 136.98 49.65C136.32 49 136.06 48.21 136.06 47.23C136.06 46.32 136.39 45.54 137.05 44.82C137.7 44.16 138.55 43.84 139.6 43.84L139.8 43.84L139.8 40.37L140.98 40.37L140.98 43.84L141.18 43.84C142.23 43.84 143.08 44.16 143.73 44.82C144.39 45.47 144.72 46.25 144.72 47.23C144.72 48.21 144.39 49.06 143.8 49.65C143.21 50.31 142.36 50.57 141.24 50.57L141.05 50.57L141.05 53.38L140.85 53.38ZM137.24 47.23C137.24 47.95 137.44 48.48 137.9 48.93C138.29 49.33 138.88 49.59 139.6 49.59L139.73 49.59L139.73 45.01L139.54 45.01C138.82 45.01 138.29 45.21 137.9 45.67C137.44 46.06 137.24 46.58 137.24 47.23ZM141.05 44.95L140.85 44.95L140.85 49.52L140.98 49.52C141.7 49.52 142.29 49.33 142.68 48.87C143.08 48.48 143.27 47.89 143.27 47.17C143.27 46.52 143.08 45.99 142.68 45.54C142.29 45.21 141.77 44.95 141.05 44.95Z" fill="#2A2A2A" fill-opacity="1.000000" fill-rule="nonzero"/>
	<path d="M62.62 53.38L61.44 53.38L61.44 50.63L61.31 50.63C60.19 50.63 59.34 50.31 58.75 49.65C58.09 49 57.83 48.21 57.83 47.23C57.83 46.32 58.16 45.54 58.82 44.82C59.47 44.16 60.32 43.84 61.37 43.84L61.57 43.84L61.57 40.37L62.75 40.37L62.75 43.84L62.95 43.84C64 43.84 64.85 44.16 65.5 44.82C66.16 45.47 66.49 46.25 66.49 47.23C66.49 48.21 66.16 49.06 65.57 49.65C64.98 50.31 64.13 50.57 63.01 50.57L62.82 50.57L62.82 53.38L62.62 53.38ZM59.01 47.23C59.01 47.95 59.21 48.48 59.67 48.93C60.06 49.33 60.65 49.59 61.37 49.59L61.5 49.59L61.5 45.01L61.31 45.01C60.59 45.01 60.06 45.21 59.67 45.67C59.21 46.06 59.01 46.58 59.01 47.23ZM62.82 44.95L62.62 44.95L62.62 49.52L62.75 49.52C63.47 49.52 64.06 49.33 64.45 48.87C64.85 48.48 65.04 47.89 65.04 47.17C65.04 46.52 64.85 45.99 64.45 45.54C64.06 45.21 63.54 44.95 62.82 44.95Z" fill="#2A2A2A" fill-opacity="1.000000" fill-rule="nonzero"/>
	<path d="M38.88 33.9L38.88 17.17L43.93 17.17L48.98 22.86L53.63 17.17L58.55 17.17L58.55 33.97L52.91 33.97L52.91 25.67L48.85 30.31L48.72 30.31L44.45 25.67L44.45 33.9L38.88 33.9Z" fill="#2A2A2A" fill-opacity="1.000000" fill-rule="nonzero"/>
	<path d="M60.91 25.54C60.91 22.99 61.77 20.9 63.47 19.2C65.18 17.5 67.47 16.72 70.29 16.72C73.11 16.72 75.41 17.57 77.05 19.2C78.75 20.9 79.6 22.99 79.6 25.54C79.6 28.09 78.75 30.18 77.05 31.88C75.34 33.58 73.11 34.36 70.29 34.36C67.47 34.36 65.18 33.51 63.47 31.88C61.77 30.18 60.91 28.09 60.91 25.54ZM70.23 29.13C72.19 29.13 73.57 27.76 73.57 25.54C73.57 23.45 72.13 21.94 70.23 21.94C68.32 21.94 66.88 23.38 66.88 25.54C66.88 27.63 68.26 29.13 70.23 29.13Z" fill="#2A2A2A" fill-opacity="1.000000" fill-rule="nonzero"/>
	<path d="M87.54 33.9L81.96 33.9L81.96 17.17L87.6 17.17L87.6 25.93L93.57 17.17L99.21 17.17L99.21 33.97L93.57 33.97L93.57 25.15L87.54 33.9ZM89.11 8.94C89.11 10.38 89.63 11.1 90.68 11.1C91.6 11.1 92.13 10.38 92.13 8.94L96.98 8.94C96.98 12.6 94.75 15.28 90.68 15.28C86.29 15.28 84.26 12.73 84.26 8.94L89.11 8.94Z" fill="#2A2A2A" fill-opacity="1.000000" fill-rule="nonzero"/>
	<path d="M169.51 33.9L169.51 26.85L160.13 26.85L160.13 33.9L157.11 33.9L157.11 17.17L160.13 17.17L160.13 24.04L169.51 24.04L169.51 17.17L172.52 17.17L172.52 33.97L169.51 33.97L169.51 33.9Z" fill="#2A2A2A" fill-opacity="1.000000" fill-rule="nonzero"/>
	<path d="M124.98 33.9L121.96 33.9L121.96 17.17L124.98 17.17L124.98 29.66L134.68 17.17L137.7 17.17L137.7 33.97L134.68 33.97L134.68 21.42L124.98 33.9Z" fill="#2A2A2A" fill-opacity="1.000000" fill-rule="nonzero"/>
	<path d="M208.26 31.48C206.88 33.25 204.45 34.29 201.77 34.29C199.08 34.29 196.91 33.51 195.21 31.94C193.57 30.31 192.72 28.22 192.72 25.6C192.72 23.12 193.57 21.03 195.14 19.4C196.78 17.7 198.82 16.85 201.24 16.85C204.19 16.85 206.42 17.57 207.86 19.07L206.49 21.42C205.24 20.24 203.6 19.66 201.63 19.66C200.06 19.66 198.75 20.24 197.57 21.36C196.45 22.47 195.86 23.9 195.86 25.6C195.86 27.37 196.45 28.87 197.57 29.92C198.75 31.03 200.19 31.55 201.9 31.55C203.86 31.55 205.44 30.83 206.75 29.39L208.26 31.48Z" fill="#2A2A2A" fill-opacity="1.000000" fill-rule="nonzero"/>
	<path d="M190.55 32.07C188.92 33.51 186.82 34.29 184.26 34.29C181.51 34.29 179.34 33.51 177.7 31.94C176.06 30.31 175.21 28.22 175.21 25.6C175.21 23.05 176 20.96 177.51 19.33C179.01 17.63 181.18 16.85 183.87 16.85C186.1 16.85 187.93 17.57 189.44 19C190.95 20.44 191.67 22.27 191.67 24.49C191.67 25.28 191.6 25.93 191.47 26.52L178.55 26.52C178.82 29.66 181.11 31.55 184.39 31.55C186.62 31.55 188.32 30.96 189.57 29.79L190.55 32.07ZM178.36 24.04L188.59 24.04C188.46 21.23 186.62 19.59 183.73 19.59C180.72 19.59 178.69 21.42 178.36 24.04Z" fill="#2A2A2A" fill-opacity="1.000000" fill-rule="nonzero"/>
	<path d="M143.08 33.64C141.7 33.18 140.72 32.66 140.19 32.01L141.7 29.79C143.08 30.9 145.11 31.62 146.68 31.62C149.24 31.62 151.08 30.5 151.08 28.87C151.08 27.5 149.83 26.71 147.8 26.71L144.91 26.71L144.91 24.3L147.54 24.3C149.24 24.3 150.42 23.25 150.42 21.94C150.42 20.44 149.05 19.53 146.82 19.53C145.05 19.53 143.34 20.18 141.77 21.36L140.59 19.07C141.96 17.7 144.52 16.85 147.21 16.85C151.27 16.85 153.5 18.55 153.5 21.36C153.5 23.32 152.52 24.62 150.55 25.28L150.55 25.34C152.78 25.6 154.09 27.24 154.09 29.26C154.09 32.33 151.21 34.29 146.95 34.29C145.77 34.29 144.46 34.03 143.08 33.64Z" fill="#2A2A2A" fill-opacity="1.000000" fill-rule="nonzero"/>
	<path d="M117.57 9.79C116.98 10.64 116.26 11.16 115.41 11.49C114.55 11.81 113.5 12.08 112.26 12.21C111.01 12.4 109.96 12.73 108.98 13.12C106.42 14.3 105.05 16.98 104.72 21.22L104.78 21.22C105.9 18.87 108.59 17.3 111.41 17.3C116.19 17.3 119.21 20.57 119.21 25.67C119.21 28.02 118.36 30.11 116.78 31.75C115.14 33.45 113.11 34.23 110.55 34.23C107.8 34.23 105.64 33.31 104.06 31.42C102.42 29.52 101.7 27.04 101.7 23.77C101.7 16.52 103.8 12.01 107.93 10.25C108.91 9.79 110.03 9.53 111.21 9.33C113.57 8.94 114.88 8.68 115.87 7.37L117.57 9.79ZM110.62 31.48C112.26 31.48 113.57 30.9 114.55 29.85C115.6 28.74 116.13 27.43 116.13 25.8C116.13 22.4 114.16 20.11 110.75 20.11C109.24 20.11 108 20.51 106.95 21.36C105.9 22.21 105.24 23.19 104.98 24.36C104.98 28.67 107.28 31.48 110.62 31.48Z" fill="#2A2A2A" fill-opacity="1.000000" fill-rule="nonzero"/>
	<path d="M9.5 51.94L14.22 61.87L14.29 61.87L19.08 51.94L14.29 47.17L9.5 51.94Z" fill="#2A2A2A" fill-opacity="1.000000" fill-rule="nonzero"/>
	<path d="M14.29 4.82C13.24 5.34 0 12.34 0 23.51C0 33.05 7.8 47.56 7.8 47.56L14.29 41.09L20.78 47.56C20.78 47.56 28.58 33.12 28.58 23.51C28.52 12.34 15.27 5.34 14.29 4.82ZM18.55 36.71L14.29 32.46L10.03 36.71C9.83 36.12 6.95 28.41 6.95 23.38C6.95 16.58 13.77 12.79 14.29 12.53C14.81 12.73 21.63 16.58 21.63 23.38C21.63 28.41 18.75 36.12 18.55 36.71Z" fill="#FE5F5F" fill-opacity="1.000000" fill-rule="nonzero"/>
	<path d="M17.7 23.05C17.7 24.88 16.19 26.39 14.36 26.39C12.52 26.39 11.01 24.88 11.01 23.05C11.01 21.22 12.52 19.72 14.36 19.72C16.19 19.72 17.7 21.22 17.7 23.05Z" fill="#2A2A2A" fill-opacity="1.000000" fill-rule="nonzero"/>
	<path d="M23.69 4.85L28.56 0L33.42 4.85L28.56 9.7L23.69 4.85Z" fill="#2A2A2A" fill-opacity="1.000000" fill-rule="evenodd"/>
</svg>
